<svg version="1.1" id="Layer_1" xmlns="http://www.w3.org/2000/svg" x="0px" y="0px" width="265px" height="37.054px" viewBox="0 0 265 37.054" enable-background="new 0 0 265 37.054" xmlns:xlink="http://www.w3.org/1999/xlink" xml:space="preserve">
<g>
	<path fill="#E5AE48" d="M40.865,0H26.503L15.967,10.985l15.398,15.758l-5.508,5.223L4.802,10.896l7.234-7.503l6.763,0.083
		l2.932-3.221H10.625L0,11.301l25.692,25.753l26.022-26.022L40.865,0z M20.205,10.995l7.443-7.504h11.586l7.624,7.564L33.591,24.262
		L20.205,10.995z"></path>
	<g>
		<path d="M75.488,3.531c6.943,0,10.353,3.573,10.353,3.573L83.5,10.105c0,0-3.123-2.795-7.929-2.795
			c-5.793,0-10.435,4.642-10.435,11.093c0,6.738,4.642,11.257,10.517,11.257c5.176,0,8.257-3.614,8.257-3.614v-2.918
			c0-0.576-0.328-0.904-0.904-0.904H81.24V18.69h3.821c1.849,0,2.629,0.781,2.629,2.629v11.709h-3.615v-1.807
			c0-0.616,0.041-1.232,0.041-1.232h-0.083c0,0-3.245,3.532-9.038,3.532c-7.724,0-14.132-6.081-14.132-15.118
			C60.863,10.064,67.189,3.531,75.488,3.531z"></path>
		<path d="M97.755,8.461c0-0.616-0.329-0.904-0.904-0.904h-1.766V4.024h4.149c1.849,0,2.629,0.781,2.629,2.629v21.938
			c0,0.575,0.328,0.904,0.904,0.904h8.011c0.575,0,0.903-0.329,0.903-0.904v-1.85h3.739v3.657c0,1.848-0.781,2.629-2.629,2.629
			h-12.407c-1.849,0-2.629-0.781-2.629-2.629V8.461z"></path>
		<path d="M120.843,29.496h0.575c0.74,0,1.109-0.165,1.356-0.904l9.079-24.567h4.314l9.079,24.567
			c0.247,0.739,0.658,0.904,1.355,0.904h0.617v3.532h-2.301c-2.055,0-2.712-0.493-3.369-2.382l-2.178-5.957H128.69l-2.178,5.957
			c-0.698,1.889-1.355,2.382-3.41,2.382h-2.259V29.496z M138.344,21.237l-3.162-8.833c-0.535-1.521-1.15-4.066-1.15-4.066h-0.082
			c0,0-0.576,2.546-1.11,4.066l-3.163,8.833H138.344z"></path>
		<path d="M152.6,29.496h1.396c0.576,0,0.863-0.329,0.904-0.904l1.972-24.567h4.231l6.82,15.365
			c0.698,1.562,1.438,3.655,1.438,3.655h0.082c0,0,0.74-2.094,1.438-3.655l6.82-15.365h4.231l1.973,24.567
			c0.041,0.575,0.328,0.904,0.903,0.904h1.355v3.532h-3.656c-1.849,0-2.506-0.781-2.629-2.629l-1.191-15.323
			c-0.123-1.727-0.082-4.274-0.082-4.274h-0.082c0,0-0.822,2.713-1.521,4.274l-5.875,12.734h-3.45l-5.875-12.734
			c-0.699-1.521-1.562-4.315-1.562-4.315h-0.082c0,0,0.041,2.589-0.082,4.315l-1.15,15.323c-0.124,1.848-0.78,2.629-2.671,2.629
			H152.6V29.496z"></path>
		<path d="M192.819,29.496h2.835V7.557h-2.835V4.024h9.573v3.532h-2.836v21.939h2.836v3.532h-9.573V29.496z"></path>
		<path d="M212.456,7.557h-2.671V4.024h12.654c5.095,0,8.668,3.204,8.668,8.504c0,4.848-3.162,7.231-5.217,7.683v0.083
			c0,0,0.74,0.369,1.232,1.313l3.492,6.944c0.41,0.862,1.067,0.945,2.054,0.945h0.534v3.532h-2.014c-2.259,0-3.08-0.288-4.025-2.177
			l-3.944-7.807c-0.739-1.356-1.272-1.562-2.876-1.562h-3.779v11.545h-4.108V7.557z M221.906,17.951
			c3.122,0,4.971-2.012,4.971-5.259c0-3.245-1.849-5.136-4.889-5.136h-5.424v10.395H221.906z"></path>
		<path d="M238.624,29.496h0.576c0.739,0,1.109-0.165,1.355-0.904l9.079-24.567h4.313l9.081,24.567
			c0.244,0.739,0.655,0.904,1.354,0.904H265v3.532h-2.3c-2.055,0-2.713-0.493-3.37-2.382l-2.176-5.957h-10.682l-2.179,5.957
			c-0.698,1.889-1.356,2.382-3.409,2.382h-2.261V29.496z M256.126,21.237l-3.164-8.833c-0.532-1.521-1.148-4.066-1.148-4.066h-0.083
			c0,0-0.575,2.546-1.109,4.066l-3.164,8.833H256.126z"></path>
	</g>
</g>
</svg>
